<svg width="44" height="33" viewBox="0 0 44 33" fill="none" xmlns="http://www.w3.org/2000/svg">
<path fill-rule="evenodd" clip-rule="evenodd" d="M44 16.5C44 15.9292 43.7757 15.3818 43.3764 14.9782C42.9772 14.5746 42.4356 14.3478 41.871 14.3478H2.12903C1.56438 14.3478 1.02285 14.5746 0.623579 14.9782C0.224308 15.3818 0 15.9292 0 16.5C0 17.0708 0.224308 17.6182 0.623579 18.0218C1.02285 18.4254 1.56438 18.6522 2.12903 18.6522H41.871C42.4356 18.6522 42.9772 18.4254 43.3764 18.0218C43.7757 17.6182 44 17.0708 44 16.5ZM44 2.15217C44 1.58138 43.7757 1.03397 43.3764 0.630357C42.9772 0.226746 42.4356 0 41.871 0H2.12903C1.56438 0 1.02285 0.226746 0.623579 0.630357C0.224308 1.03397 0 1.58138 0 2.15217C0 2.72297 0.224308 3.27038 0.623579 3.67399C1.02285 4.0776 1.56438 4.30435 2.12903 4.30435H41.871C42.4356 4.30435 42.9772 4.0776 43.3764 3.67399C43.7757 3.27038 44 2.72297 44 2.15217ZM44 30.8478C44 30.277 43.7757 29.7296 43.3764 29.326C42.9772 28.9224 42.4356 28.6957 41.871 28.6957H2.12903C1.56438 28.6957 1.02285 28.9224 0.623579 29.326C0.224308 29.7296 0 30.277 0 30.8478C0 31.4186 0.224308 31.966 0.623579 32.3696C1.02285 32.7733 1.56438 33 2.12903 33H41.871C42.4356 33 42.9772 32.7733 43.3764 32.3696C43.7757 31.966 44 31.4186 44 30.8478Z" fill="#20322E"/>
</svg>
