<svg width="31" height="31" viewBox="0 0 31 31" fill="none" xmlns="http://www.w3.org/2000/svg">
<path d="M24.6667 24.6667C22.9554 24.6667 21.5833 26.0388 21.5833 27.75C21.5833 28.5678 21.9082 29.352 22.4864 29.9302C23.0647 30.5085 23.8489 30.8333 24.6667 30.8333C25.4844 30.8333 26.2687 30.5085 26.8469 29.9302C27.4251 29.352 27.75 28.5678 27.75 27.75C27.75 26.9323 27.4251 26.148 26.8469 25.5698C26.2687 24.9915 25.4844 24.6667 24.6667 24.6667ZM0 0V3.08333H3.08333L8.63333 14.7846L6.53667 18.5617C6.30542 18.9933 6.16667 19.5021 6.16667 20.0417C6.16667 20.8594 6.49152 21.6437 7.06975 22.2219C7.64799 22.8001 8.43225 23.125 9.25 23.125H27.75V20.0417H9.8975C9.79528 20.0417 9.69725 20.0011 9.62497 19.9288C9.55269 19.8565 9.51208 19.7585 9.51208 19.6563C9.51208 19.5792 9.5275 19.5175 9.55833 19.4713L10.9458 16.9583H22.4313C23.5875 16.9583 24.605 16.3108 25.1292 15.3704L30.6483 5.39583C30.7563 5.14917 30.8333 4.88708 30.8333 4.625C30.8333 4.21613 30.6709 3.824 30.3818 3.53488C30.0927 3.24576 29.7005 3.08333 29.2917 3.08333H6.49042L5.04125 0M9.25 24.6667C7.53875 24.6667 6.16667 26.0388 6.16667 27.75C6.16667 28.5678 6.49152 29.352 7.06975 29.9302C7.64799 30.5085 8.43225 30.8333 9.25 30.8333C10.0678 30.8333 10.852 30.5085 11.4302 29.9302C12.0085 29.352 12.3333 28.5678 12.3333 27.75C12.3333 26.9323 12.0085 26.148 11.4302 25.5698C10.852 24.9915 10.0678 24.6667 9.25 24.6667Z" fill="#20322E"/>
</svg>
